<svg xmlns="http://www.w3.org/2000/svg" width="519.276" height="422.311" viewBox="0 0 519.276 422.311">
    <path id="Caminho_5" data-name="Caminho 5" d="M223.25,102.31a211.091,211.091,0,0,1,290.94,62.45c13.324-7.125,83.531-47.762,94.5-30.66,6.316,9.828-19.387,36.727-66.074,72.242l-5.812,4.4a211.187,211.187,0,0,1-84.891,246.54l-1.16.738a211.4,211.4,0,0,1-196.847,15.961,8.251,8.251,0,0,1-2.871-1.262A210.377,210.377,0,0,1,191.225,432.5l-5.9,3.176C133.28,463.515,97.9,475.8,91.581,465.937c-10.969-17.121,55.207-63.992,67.25-73.148a211.075,211.075,0,0,1,64.43-290.49ZM483.07,303.26a8.376,8.376,0,0,1-9.055-14.094l55.844-35.836a192.445,192.445,0,0,0-7.223-32.02c-41.109,30.273-94.434,66.832-153.61,104.83l-1.512.957c-59.707,38.3-115.72,71.922-160.81,96.938a193.7,193.7,0,0,0,48.535,32.188l54-34.641a8.376,8.376,0,1,1,9.055,14.094l-43.965,28.207A194.569,194.569,0,0,0,442.18,443.621l.1-.066a193.385,193.385,0,0,0,67.27-73.449L468.9,396.2a8.376,8.376,0,1,1-9.055-14.094l58-37.211a8.472,8.472,0,0,1,3.109-1.211,197.678,197.678,0,0,0,6.25-22.242,195.58,195.58,0,0,0,4.352-49.309l-48.469,31.1ZM400.882,162.68a8.376,8.376,0,1,1-9.055-14.094L442.144,116.3A194.425,194.425,0,0,0,143.308,267.887l44.707-28.7a8.376,8.376,0,1,1,9.055,14.094l-54,34.641a194.937,194.937,0,0,0,51.293,123.836c45.344-25,102.68-59.32,164.12-98.75l1.512-.957c60.766-39.012,115.3-76.492,156.64-107.1a195.987,195.987,0,0,0-15.676-29.82l-.066-.1a194.394,194.394,0,0,0-43.965-48.285L400.9,162.7ZM274.792,314.86a8.376,8.376,0,1,1-9.055-14.094l58-37.211a8.376,8.376,0,1,1,9.055,14.094Zm247.99-135.71q4.16,7.635,7.629,15.457l2.051-1.562c82-62.328,82.035-62.969-9.676-13.9ZM179.2,420c-3.781-4.285-7.41-8.734-10.871-13.391-83.75,63.656-81.348,62.715,9.141,14.312l1.746-.941Z" transform="translate(-90.359 -68.831)" fill="#fff"/>
</svg>
  